<svg width="42" height="32" viewBox="0 0 42 32" fill="none" xmlns="http://www.w3.org/2000/svg">
<path fill-rule="evenodd" clip-rule="evenodd" d="M1 0C0.447715 0 0 0.447715 0 1C0 1.55228 0.447715 2 1 2H4.82029L11.7128 25.2838C11.714 25.2881 11.7153 25.2923 11.7166 25.2965L11.8771 26H12.6716H34.7826H35C35.1827 26 35.354 25.951 35.5014 25.8654C35.9908 25.6748 36.3906 25.2935 36.5893 24.7957L41.8663 11.5735C42.3606 10.3353 41.4231 9 40.0596 9H8.97822L6.52603 0.716155C6.4003 0.291413 6.01012 0 5.56716 0H1ZM18.64 29.44C18.64 30.8538 17.4938 32 16.08 32C14.6662 32 13.52 30.8538 13.52 29.44C13.52 28.0261 14.6662 26.88 16.08 26.88C17.4938 26.88 18.64 28.0261 18.64 29.44ZM27.1733 32C28.5872 32 29.7333 30.8538 29.7333 29.44C29.7333 28.0261 28.5872 26.88 27.1733 26.88C25.7595 26.88 24.6133 28.0261 24.6133 29.44C24.6133 30.8538 25.7595 32 27.1733 32Z" fill="white"/>
</svg>
