<svg width="15" height="12" viewBox="0 0 15 12" fill="none" xmlns="http://www.w3.org/2000/svg">
<path d="M13.9996 8.48692V9.99232C14.0003 10.1321 13.963 10.2704 13.8901 10.3985C13.8172 10.5265 13.7102 10.6414 13.5761 10.7359C13.442 10.8304 13.2836 10.9023 13.1111 10.9471C12.9387 10.9919 12.756 11.0085 12.5747 10.9959C10.5633 10.8281 8.63128 10.3005 6.93379 9.4554C5.35449 8.68496 4.01552 7.65703 3.01197 6.44459C1.90731 5.13549 1.21986 3.64504 1.00531 2.09397C0.988971 1.95521 1.01045 1.81536 1.06838 1.68331C1.12631 1.55127 1.21942 1.42994 1.34178 1.32703C1.46413 1.22413 1.61306 1.14191 1.77907 1.08562C1.94509 1.02932 2.12455 1.00018 2.30604 1.00005H4.26695C4.58416 0.997652 4.89169 1.08389 5.13221 1.24269C5.37273 1.40148 5.52983 1.622 5.57422 1.86315C5.65699 2.34491 5.81048 2.81794 6.03177 3.27321C6.11971 3.45281 6.13874 3.64801 6.08661 3.83567C6.03448 4.02332 5.91337 4.19557 5.73763 4.33201L4.90751 4.96929C5.838 6.22558 7.19292 7.26576 8.82933 7.9801L9.65945 7.34281C9.83717 7.2079 10.0615 7.11492 10.306 7.0749C10.5504 7.03488 10.8047 7.04949 11.0386 7.117C11.6317 7.28689 12.2478 7.40473 12.8753 7.46826C13.1929 7.50265 13.4828 7.62543 13.6901 7.81325C13.8974 8.00107 14.0076 8.24083 13.9996 8.48692Z" stroke="white" stroke-width="2" stroke-linecap="round" stroke-linejoin="round"/>
</svg>
