<svg width="113" height="129" viewBox="0 0 113 129" fill="none" xmlns="http://www.w3.org/2000/svg">
<path fill-rule="evenodd" clip-rule="evenodd" d="M58.6899 0H53.8721V36.7225L41.4737 29.1607C40.0895 28.3165 38.22 28.8734 37.6219 30.3082L31.6659 44.5955C31.2943 45.487 30.3921 46.0911 29.3645 46.1365L12.8961 46.8647C11.2423 46.9379 10.0821 48.4096 10.5057 49.8971L14.7236 64.7093C14.9867 65.6335 14.639 66.6151 13.8364 67.2131L0.973732 76.7982C-0.318004 77.7607 -0.325765 79.5852 0.957741 80.5572L13.7384 90.2365C14.5359 90.8404 14.8753 91.8245 14.6043 92.7468L10.2605 107.527C9.82426 109.012 10.9719 110.492 12.6251 110.577L29.0867 111.427C30.1139 111.48 31.0109 112.09 31.3749 112.984L37.2092 127.315C37.7951 128.754 39.6597 129.325 41.0511 128.491L54.906 120.186C55.7705 119.667 56.8824 119.671 57.7425 120.196L71.5263 128.603C72.9105 129.447 74.78 128.89 75.3781 127.455L81.3341 113.168C81.7057 112.277 82.6079 111.672 83.6355 111.627L100.104 110.899C101.758 110.826 102.918 109.354 102.494 107.866L98.2764 93.0542C98.0133 92.13 98.361 91.1485 99.1636 90.5504L112.026 80.9653C113.318 80.0028 113.326 78.1783 112.042 77.2063L99.2616 67.527C98.4641 66.9231 98.1247 65.939 98.3957 65.0168L102.74 50.236C103.176 48.7517 102.028 47.2715 100.375 47.1862L83.9132 46.337C82.8861 46.284 81.9891 45.6733 81.6251 44.7791L75.7908 30.4484C75.2049 29.0093 73.3403 28.4386 71.9489 29.2727L58.6899 37.2207V0Z" fill="white"/>
</svg>
