<svg width="52" height="17" viewBox="0 0 52 17" fill="none" xmlns="http://www.w3.org/2000/svg">
<path d="M10.7 4.56C10.5667 4.06667 10.42 3.7 10.26 3.46C10.1133 3.20667 9.90667 3.03333 9.64 2.94C9.37333 2.83333 9 2.78 8.52 2.78H7.62C7.34 2.78 7.15333 2.88 7.06 3.08C6.98 3.26667 6.94 3.67333 6.94 4.3V13.34C6.94 13.9533 7.02667 14.38 7.2 14.62C7.37333 14.86 7.71333 15.0533 8.22 15.2L8.68 15.32L8.44 16H4.06L3.8 15.68L4.06 15.32C4.39333 14.88 4.62667 14.4133 4.76 13.92C4.89333 13.4267 4.96 12.78 4.96 11.98V4.3C4.96 3.67333 4.91333 3.26667 4.82 3.08C4.74 2.88 4.56 2.78 4.28 2.78H3.38C2.9 2.78 2.52667 2.83333 2.26 2.94C1.99333 3.03333 1.78 3.20667 1.62 3.46C1.47333 3.7 1.33333 4.06667 1.2 4.56L1.08 5.02L0.4 4.78V1.22L0.72 0.959999L1.08 1.22C1.45333 1.5 2.21333 1.64 3.36 1.64H8.54C9.68667 1.64 10.4467 1.5 10.82 1.22L11.18 0.959999L11.5 1.22V4.78L10.82 5.02L10.7 4.56ZM11.3883 11.04C11.3883 9.97333 11.5816 9.04667 11.9683 8.26C12.3683 7.47333 12.9349 6.86667 13.6683 6.44C14.4149 6.01333 15.2816 5.8 16.2683 5.8C17.2549 5.8 18.1149 6.01333 18.8483 6.44C19.5816 6.86667 20.1483 7.47333 20.5483 8.26C20.9483 9.04667 21.1483 9.97333 21.1483 11.04C21.1483 12.0933 20.9483 13.02 20.5483 13.82C20.1483 14.6067 19.5816 15.2133 18.8483 15.64C18.1149 16.0667 17.2549 16.28 16.2683 16.28C15.2816 16.28 14.4149 16.0667 13.6683 15.64C12.9349 15.2133 12.3683 14.6067 11.9683 13.82C11.5816 13.02 11.3883 12.0933 11.3883 11.04ZM19.0483 11.1C19.0483 10.4733 18.9616 9.83333 18.7883 9.18C18.6149 8.52667 18.3216 7.97333 17.9083 7.52C17.5083 7.06667 16.9816 6.84 16.3283 6.84C15.7683 6.84 15.2683 7.02 14.8283 7.38C14.4016 7.72667 14.0683 8.22 13.8283 8.86C13.5883 9.5 13.4683 10.2333 13.4683 11.06C13.4683 12.3267 13.7149 13.3333 14.2083 14.08C14.7016 14.8267 15.3683 15.2 16.2083 15.2C16.7549 15.2 17.2416 15.0333 17.6683 14.7C18.1083 14.3533 18.4483 13.8733 18.6883 13.26C18.9283 12.6333 19.0483 11.9133 19.0483 11.1ZM23.8908 2.84C23.8908 2.58667 24.0308 2.30667 24.3108 2C24.6041 1.68 24.8708 1.52 25.1108 1.52C25.3641 1.52 25.6374 1.67333 25.9308 1.98C26.2241 2.28667 26.3708 2.57333 26.3708 2.84C26.3708 3.09333 26.2241 3.37333 25.9308 3.68C25.6374 3.98667 25.3641 4.14 25.1108 4.14C24.8841 4.14 24.6241 3.98667 24.3308 3.68C24.0374 3.37333 23.8908 3.09333 23.8908 2.84ZM26.0108 14.24C26.0108 14.6933 26.2108 14.92 26.6108 14.92C26.9441 14.92 27.2774 14.78 27.6108 14.5L27.9908 15.02C27.6441 15.4067 27.2708 15.7133 26.8708 15.94C26.4708 16.1667 26.0974 16.28 25.7508 16.28C25.2041 16.28 24.8108 16.1133 24.5708 15.78C24.3308 15.4467 24.2108 14.9067 24.2108 14.16V7.96C24.2108 7.8 24.1774 7.68667 24.1108 7.62C24.0574 7.55333 23.9574 7.52 23.8108 7.52H22.9308L22.7508 7C23.1374 6.65333 23.5774 6.36667 24.0708 6.14C24.5641 5.91333 25.0041 5.8 25.3908 5.8C25.5774 5.8 25.7308 5.86 25.8508 5.98C25.9708 6.1 26.0308 6.25333 26.0308 6.44L26.0108 14.24ZM32.0413 14.24C32.0413 14.6933 32.2413 14.92 32.6413 14.92C32.9746 14.92 33.3079 14.78 33.6413 14.5L34.0213 15.02C33.6746 15.4067 33.3013 15.7133 32.9013 15.94C32.5013 16.1667 32.1279 16.28 31.7813 16.28C31.2346 16.28 30.8413 16.1133 30.6013 15.78C30.3613 15.4467 30.2413 14.9067 30.2413 14.16V2.52C30.2413 2.36 30.2079 2.24667 30.1413 2.18C30.0879 2.11333 29.9879 2.08 29.8413 2.08H28.9613L28.7813 1.56C29.1679 1.21333 29.6079 0.926666 30.1013 0.699999C30.5946 0.473332 31.0346 0.359999 31.4213 0.359999C31.6079 0.359999 31.7613 0.419999 31.8813 0.539999C32.0013 0.659999 32.0613 0.813332 32.0613 0.999999L32.0413 14.24ZM43.7764 14.5C43.2831 15.0733 42.6964 15.5133 42.0164 15.82C41.3364 16.1267 40.6031 16.28 39.8164 16.28C38.8964 16.28 38.0897 16.0667 37.3964 15.64C36.7031 15.2133 36.1631 14.6133 35.7764 13.84C35.4031 13.0667 35.2164 12.1733 35.2164 11.16C35.2164 10.0933 35.4297 9.16 35.8564 8.36C36.2831 7.54667 36.8831 6.92 37.6564 6.48C38.4431 6.02667 39.3564 5.8 40.3964 5.8C41.1297 5.8 41.7497 5.94 42.2564 6.22C42.7764 6.48667 43.1631 6.84667 43.4164 7.3C43.6697 7.74 43.7964 8.22 43.7964 8.74C43.7964 9.3 43.6431 9.84 43.3364 10.36C43.0431 10.88 42.6097 11.3067 42.0364 11.64C41.4631 11.96 40.7764 12.12 39.9764 12.12C39.5497 12.12 39.0764 12.04 38.5564 11.88C38.0364 11.72 37.7764 11.4867 37.7764 11.18C37.7764 11.0733 37.8031 10.9733 37.8564 10.88C37.9231 10.7867 37.9964 10.74 38.0764 10.74C38.1164 10.74 38.2497 10.7867 38.4764 10.88C38.7031 10.96 38.9964 11 39.3564 11C40.1564 11 40.7764 10.7733 41.2164 10.32C41.6697 9.86667 41.8964 9.33333 41.8964 8.72C41.8964 8.2 41.7297 7.75333 41.3964 7.38C41.0631 6.99333 40.5964 6.8 39.9964 6.8C39.1431 6.8 38.4764 7.18 37.9964 7.94C37.5164 8.68667 37.2764 9.76 37.2764 11.16C37.2764 12.3467 37.5297 13.28 38.0364 13.96C38.5431 14.6267 39.2764 14.96 40.2364 14.96C41.4097 14.96 42.3831 14.58 43.1564 13.82C43.2097 13.7667 43.2697 13.74 43.3364 13.74C43.4431 13.74 43.5564 13.8067 43.6764 13.94C43.7964 14.06 43.8564 14.1867 43.8564 14.32C43.8564 14.3867 43.8297 14.4467 43.7764 14.5ZM51.3023 6.06C51.3023 6.34 51.2623 6.59333 51.1823 6.82C51.1023 7.04667 50.989 7.21333 50.8423 7.32H48.7023V13.76C48.7023 14.1733 48.7623 14.4667 48.8823 14.64C49.0023 14.8133 49.1957 14.9 49.4623 14.9C49.8623 14.9 50.3157 14.6867 50.8223 14.26L51.2023 14.78C50.8557 15.2333 50.4423 15.6 49.9623 15.88C49.4823 16.1467 49.029 16.28 48.6023 16.28C48.0557 16.28 47.629 16.1133 47.3223 15.78C47.029 15.4333 46.8823 14.96 46.8823 14.36V7.32H45.1223C45.1223 6.96 45.149 6.72667 45.2023 6.62C45.2557 6.51333 45.389 6.43333 45.6023 6.38C46.309 6.19333 46.809 5.89333 47.1023 5.48C47.409 5.05333 47.629 4.50667 47.7623 3.84C47.8023 3.62667 47.869 3.49333 47.9623 3.44C48.069 3.38667 48.3157 3.36 48.7023 3.36V6.06H51.3023Z" fill="black"/>
</svg>
